<mxfile host="app.diagrams.net" agent="Mozilla/5.0 (Macintosh; Intel Mac OS X 10_15_7) AppleWebKit/605.1.15 (KHTML, like Gecko) Version/17.6 Safari/605.1.15" version="24.8.3" pages="2">
  <diagram name="Process" id="zvm5iTOs9yB3Mbko3f-p">
    <mxGraphModel dx="1966" dy="1848" grid="1" gridSize="10" guides="1" tooltips="1" connect="1" arrows="1" fold="1" page="1" pageScale="1" pageWidth="827" pageHeight="1169" math="0" shadow="0">
      <root>
        <mxCell id="0" />
        <mxCell id="1" parent="0" />
        <mxCell id="OTX3dIeQN36Ivgr2qcu4-27" style="edgeStyle=orthogonalEdgeStyle;rounded=0;orthogonalLoop=1;jettySize=auto;html=1;exitX=0.25;exitY=1;exitDx=0;exitDy=0;entryX=-0.028;entryY=0.908;entryDx=0;entryDy=0;entryPerimeter=0;" edge="1" parent="1" source="OTX3dIeQN36Ivgr2qcu4-1" target="OTX3dIeQN36Ivgr2qcu4-6">
          <mxGeometry relative="1" as="geometry">
            <mxPoint x="160" y="440" as="targetPoint" />
          </mxGeometry>
        </mxCell>
        <mxCell id="OTX3dIeQN36Ivgr2qcu4-31" value="xQueueSend" style="edgeLabel;html=1;align=center;verticalAlign=middle;resizable=0;points=[];" vertex="1" connectable="0" parent="OTX3dIeQN36Ivgr2qcu4-27">
          <mxGeometry x="-0.6821" relative="1" as="geometry">
            <mxPoint as="offset" />
          </mxGeometry>
        </mxCell>
        <mxCell id="OTX3dIeQN36Ivgr2qcu4-1" value="ReceiverTask" style="shape=process;whiteSpace=wrap;html=1;backgroundOutline=1;" vertex="1" parent="1">
          <mxGeometry x="80" y="240" width="120" height="60" as="geometry" />
        </mxCell>
        <mxCell id="OTX3dIeQN36Ivgr2qcu4-2" value="OpticalFlowTask" style="shape=process;whiteSpace=wrap;html=1;backgroundOutline=1;" vertex="1" parent="1">
          <mxGeometry x="230" y="240" width="120" height="60" as="geometry" />
        </mxCell>
        <mxCell id="OTX3dIeQN36Ivgr2qcu4-3" value="SurfaceTask" style="shape=process;whiteSpace=wrap;html=1;backgroundOutline=1;" vertex="1" parent="1">
          <mxGeometry x="380" y="240" width="120" height="60" as="geometry" />
        </mxCell>
        <mxCell id="OTX3dIeQN36Ivgr2qcu4-4" value="SteeringTask" style="shape=process;whiteSpace=wrap;html=1;backgroundOutline=1;" vertex="1" parent="1">
          <mxGeometry x="530" y="240" width="120" height="60" as="geometry" />
        </mxCell>
        <mxCell id="OTX3dIeQN36Ivgr2qcu4-5" value="MixerTask" style="shape=process;whiteSpace=wrap;html=1;backgroundOutline=1;" vertex="1" parent="1">
          <mxGeometry x="680" y="240" width="120" height="60" as="geometry" />
        </mxCell>
        <mxCell id="OTX3dIeQN36Ivgr2qcu4-34" style="edgeStyle=orthogonalEdgeStyle;rounded=0;orthogonalLoop=1;jettySize=auto;html=1;entryX=0.75;entryY=1;entryDx=0;entryDy=0;exitX=0;exitY=0.832;exitDx=0;exitDy=0;exitPerimeter=0;" edge="1" parent="1" source="OTX3dIeQN36Ivgr2qcu4-6" target="OTX3dIeQN36Ivgr2qcu4-1">
          <mxGeometry relative="1" as="geometry" />
        </mxCell>
        <mxCell id="OTX3dIeQN36Ivgr2qcu4-35" value="xQueueRead" style="edgeLabel;html=1;align=center;verticalAlign=middle;resizable=0;points=[];" vertex="1" connectable="0" parent="OTX3dIeQN36Ivgr2qcu4-34">
          <mxGeometry x="0.3418" relative="1" as="geometry">
            <mxPoint as="offset" />
          </mxGeometry>
        </mxCell>
        <mxCell id="OTX3dIeQN36Ivgr2qcu4-6" value="" style="shape=cylinder3;whiteSpace=wrap;html=1;boundedLbl=1;backgroundOutline=1;size=16.499999999999886;rotation=0;portConstraintRotation=1;noLabel=0;snapToPoint=0;movableLabel=1;autosize=0;resizeWidth=0;resizeHeight=0;linejoin=arcs;direction=south;points=[[0,0,0,0,16.499999999999886],[0,0,0,0,203.24999999999994],[0,0,0,0,576.75],[0,0.5,0,0,0],[0,1,0,0,-16.499999999999886],[0.01,0.63,0,0,0],[0.06,0,0,0,0],[0.06,1,0,0,2],[0.09,0,0,0,0],[0.1,1,0,0,0],[0.145,1,0,0,-4.784999999999966],[0.16,0,0,0,0],[0.2,0,0,0,0],[0.2,1,0,0,0],[0.21,0,0,0,-2],[0.3,0,0,0,0],[0.3,1,0,0,0],[0.5,0,0,0,0],[0.6,0,0,0,0],[0.6,1,0,0,0],[0.7,1,0,0,0],[0.75,0,0,0,0],[0.8,0,0,0,0],[0.8,1,0,0,0],[0.855,0,0,0,4.784999999999966],[0.855,1,0,0,-4.784999999999966],[0.9,0,0,0,0],[0.9,1,0,0,0],[1,0,0,0,16.499999999999886],[1,0,0,0,203.24999999999994],[1,0,0,0,576.75],[1,0.5,0,0,0],[1,1,0,0,-16.499999999999886]];" vertex="1" parent="1">
          <mxGeometry x="39" y="460" width="780" height="40" as="geometry">
            <mxPoint x="7" y="1" as="offset" />
          </mxGeometry>
        </mxCell>
        <mxCell id="OTX3dIeQN36Ivgr2qcu4-10" value="TDataAll - Struct" style="swimlane;" vertex="1" parent="1">
          <mxGeometry x="50" y="540" width="290" height="260" as="geometry" />
        </mxCell>
        <mxCell id="OTX3dIeQN36Ivgr2qcu4-11" value="&lt;div style=&quot;text-align: start; background-color: rgb(255, 255, 255); font-family: Menlo, Monaco, &amp;quot;Courier New&amp;quot;, monospace; line-height: 18px; white-space: pre;&quot;&gt;&lt;div style=&quot;line-height: 18px;&quot;&gt;&lt;div&gt;&lt;span style=&quot;color: rgb(0, 0, 255);&quot;&gt;typedef&lt;/span&gt; &lt;span style=&quot;color: rgb(0, 0, 255);&quot;&gt;struct&lt;/span&gt; {&lt;/div&gt;&lt;div&gt;  &lt;span style=&quot;color: rgb(38, 127, 153);&quot;&gt;QueueDataTypes&lt;/span&gt; &lt;span style=&quot;color: rgb(0, 16, 128);&quot;&gt;type&lt;/span&gt;;&lt;/div&gt;&lt;div&gt;  &lt;span style=&quot;color: rgb(0, 0, 255);&quot;&gt;union&lt;/span&gt; {&lt;/div&gt;&lt;div&gt;    &lt;span style=&quot;color: rgb(38, 127, 153);&quot;&gt;TQueueDataRC&lt;/span&gt; &lt;span style=&quot;color: rgb(0, 16, 128);&quot;&gt;rcData&lt;/span&gt;;&lt;/div&gt;&lt;div&gt;    &lt;span style=&quot;color: rgb(38, 127, 153);&quot;&gt;TQueueDataMixer&lt;/span&gt; &lt;span style=&quot;color: rgb(0, 16, 128);&quot;&gt;mixerData&lt;/span&gt;;&lt;/div&gt;&lt;div&gt;    &lt;span style=&quot;color: rgb(38, 127, 153);&quot;&gt;TQueueDataOFLOW&lt;/span&gt; &lt;span style=&quot;color: rgb(0, 16, 128);&quot;&gt;oflowData&lt;/span&gt;;&lt;/div&gt;&lt;div&gt;    &lt;span style=&quot;color: rgb(38, 127, 153);&quot;&gt;TQueueDataSteer&lt;/span&gt; &lt;span style=&quot;color: rgb(0, 16, 128);&quot;&gt;steerData&lt;/span&gt;;&lt;/div&gt;&lt;div&gt;    &lt;span style=&quot;color: rgb(38, 127, 153);&quot;&gt;TQueueDataSurface&lt;/span&gt; &lt;span style=&quot;color: rgb(0, 16, 128);&quot;&gt;surfaceData&lt;/span&gt;;&lt;/div&gt;&lt;div&gt;    &lt;span style=&quot;color: rgb(38, 127, 153);&quot;&gt;TQueueDataHover&lt;/span&gt; &lt;span style=&quot;color: rgb(0, 16, 128);&quot;&gt;hoverData&lt;/span&gt;;&lt;/div&gt;&lt;div&gt;  } &lt;span style=&quot;color: rgb(0, 16, 128);&quot;&gt;data&lt;/span&gt;;&lt;/div&gt;&lt;br&gt;&lt;div&gt;} &lt;span style=&quot;color: rgb(38, 127, 153);&quot;&gt;TQueueDataMessage&lt;/span&gt;;&lt;/div&gt;&lt;/div&gt;&lt;/div&gt;" style="text;html=1;align=center;verticalAlign=middle;resizable=0;points=[];autosize=1;strokeColor=none;fillColor=none;" vertex="1" parent="OTX3dIeQN36Ivgr2qcu4-10">
          <mxGeometry x="5" y="30" width="270" height="230" as="geometry" />
        </mxCell>
        <mxCell id="OTX3dIeQN36Ivgr2qcu4-12" value="TQueueDataOFLOW (OpticalFlow-Sensor)" style="swimlane;" vertex="1" parent="1">
          <mxGeometry x="445" y="1060" width="375" height="160" as="geometry" />
        </mxCell>
        <mxCell id="OTX3dIeQN36Ivgr2qcu4-13" value="&lt;div style=&quot;text-align: start; background-color: rgb(255, 255, 255); font-family: Menlo, Monaco, &amp;quot;Courier New&amp;quot;, monospace; line-height: 18px; white-space: pre;&quot;&gt;&lt;div style=&quot;line-height: 18px;&quot;&gt;&lt;div&gt;&lt;span style=&quot;color: rgb(0, 0, 255);&quot;&gt;typedef&lt;/span&gt; &lt;span style=&quot;color: rgb(0, 0, 255);&quot;&gt;struct&lt;/span&gt; {&lt;/div&gt;&lt;div&gt;  &lt;span style=&quot;color: rgb(38, 127, 153);&quot;&gt;uint16_t&lt;/span&gt; &lt;span style=&quot;color: rgb(0, 16, 128);&quot;&gt;channels&lt;/span&gt;[&lt;span style=&quot;color: rgb(0, 0, 255);&quot;&gt;MIN_NUMBER_OF_CHANNELS&lt;/span&gt;] = {&lt;span style=&quot;color: rgb(9, 134, 88);&quot;&gt;0&lt;/span&gt;};&lt;/div&gt;&lt;div&gt;  &lt;span style=&quot;color: rgb(0, 0, 255);&quot;&gt;bool&lt;/span&gt; &lt;span style=&quot;color: rgb(0, 16, 128);&quot;&gt;prevent_ariming&lt;/span&gt; = &lt;span style=&quot;color: rgb(0, 0, 255);&quot;&gt;false&lt;/span&gt;;&lt;/div&gt;&lt;div&gt;  &lt;span style=&quot;color: rgb(0, 0, 255);&quot;&gt;float&lt;/span&gt; &lt;span style=&quot;color: rgb(0, 16, 128);&quot;&gt;x&lt;/span&gt;,&lt;span style=&quot;color: rgb(0, 16, 128);&quot;&gt;y&lt;/span&gt;;&lt;/div&gt;&lt;div&gt;} &lt;span style=&quot;color: rgb(38, 127, 153);&quot;&gt;TQueueDataOFLOW&lt;/span&gt;;&lt;/div&gt;&lt;/div&gt;&lt;/div&gt;" style="text;html=1;align=center;verticalAlign=middle;resizable=0;points=[];autosize=1;strokeColor=none;fillColor=none;" vertex="1" parent="OTX3dIeQN36Ivgr2qcu4-12">
          <mxGeometry x="-5" y="40" width="380" height="100" as="geometry" />
        </mxCell>
        <mxCell id="OTX3dIeQN36Ivgr2qcu4-14" value="TQueueDataRC (Receiver)" style="swimlane;" vertex="1" parent="1">
          <mxGeometry x="47.5" y="820" width="365" height="140" as="geometry" />
        </mxCell>
        <mxCell id="OTX3dIeQN36Ivgr2qcu4-15" value="&lt;div style=&quot;text-align: start; background-color: rgb(255, 255, 255); font-family: Menlo, Monaco, &amp;quot;Courier New&amp;quot;, monospace; line-height: 18px; white-space: pre;&quot;&gt;&lt;div&gt;&lt;span style=&quot;color: rgb(0, 0, 255);&quot;&gt;typedef&lt;/span&gt; &lt;span style=&quot;color: rgb(0, 0, 255);&quot;&gt;struct&lt;/span&gt; {&lt;/div&gt;&lt;div&gt;  &lt;span style=&quot;color: rgb(38, 127, 153);&quot;&gt;uint16_t&lt;/span&gt; &lt;span style=&quot;color: rgb(0, 16, 128);&quot;&gt;channels&lt;/span&gt;[&lt;span style=&quot;color: rgb(0, 0, 255);&quot;&gt;NUMBER_OF_CHANNELS&lt;/span&gt;] = {&lt;span style=&quot;color: rgb(9, 134, 88);&quot;&gt;0&lt;/span&gt;};&lt;/div&gt;&lt;div&gt;  &lt;span style=&quot;color: rgb(0, 0, 255);&quot;&gt;bool&lt;/span&gt; &lt;span style=&quot;color: rgb(0, 16, 128);&quot;&gt;is_armed&lt;/span&gt; = &lt;span style=&quot;color: rgb(0, 0, 255);&quot;&gt;false&lt;/span&gt;;&lt;/div&gt;&lt;br&gt;&lt;div&gt;} &lt;span style=&quot;color: rgb(38, 127, 153);&quot;&gt;TQueueDataRC&lt;/span&gt;;&lt;/div&gt;&lt;/div&gt;" style="text;html=1;align=center;verticalAlign=middle;resizable=0;points=[];autosize=1;strokeColor=none;fillColor=none;" vertex="1" parent="OTX3dIeQN36Ivgr2qcu4-14">
          <mxGeometry x="5" y="30" width="360" height="100" as="geometry" />
        </mxCell>
        <mxCell id="OTX3dIeQN36Ivgr2qcu4-16" value="TQueueDataSurface (TOF &amp; Lidar Distance-Sensors)" style="swimlane;" vertex="1" parent="1">
          <mxGeometry x="40" y="980" width="380" height="200" as="geometry" />
        </mxCell>
        <mxCell id="OTX3dIeQN36Ivgr2qcu4-17" value="&lt;div style=&quot;text-align: start; background-color: rgb(255, 255, 255); font-family: Menlo, Monaco, &amp;quot;Courier New&amp;quot;, monospace; line-height: 18px; white-space: pre;&quot;&gt;&lt;div&gt;&lt;span style=&quot;color: rgb(0, 0, 255);&quot;&gt;typedef&lt;/span&gt; &lt;span style=&quot;color: rgb(0, 0, 255);&quot;&gt;struct&lt;/span&gt; {&lt;/div&gt;&lt;div&gt;  &lt;span style=&quot;color: rgb(38, 127, 153);&quot;&gt;uint16_t&lt;/span&gt; &lt;span style=&quot;color: rgb(0, 16, 128);&quot;&gt;channels&lt;/span&gt;[&lt;span style=&quot;color: rgb(0, 0, 255);&quot;&gt;MIN_NUMBER_OF_CHANNELS&lt;/span&gt;] = {&lt;span style=&quot;color: rgb(9, 134, 88);&quot;&gt;0&lt;/span&gt;};&lt;/div&gt;&lt;div&gt;  &lt;span style=&quot;color: rgb(0, 0, 255);&quot;&gt;bool&lt;/span&gt; &lt;span style=&quot;color: rgb(0, 16, 128);&quot;&gt;prevent_ariming&lt;/span&gt; = &lt;span style=&quot;color: rgb(0, 0, 255);&quot;&gt;false&lt;/span&gt;;&lt;/div&gt;&lt;div&gt;  &lt;span style=&quot;color: rgb(38, 127, 153);&quot;&gt;uint16_t&lt;/span&gt; &lt;span style=&quot;color: rgb(0, 16, 128);&quot;&gt;distance_front&lt;/span&gt;;&lt;/div&gt;&lt;div&gt;  &lt;span style=&quot;color: rgb(38, 127, 153);&quot;&gt;uint16_t&lt;/span&gt; &lt;span style=&quot;color: rgb(0, 16, 128);&quot;&gt;distance_rear&lt;/span&gt;;&lt;/div&gt;&lt;br&gt;&lt;div&gt;} &lt;span style=&quot;color: rgb(38, 127, 153);&quot;&gt;TQueueDataSurface&lt;/span&gt;;&lt;/div&gt;&lt;/div&gt;" style="text;html=1;align=center;verticalAlign=middle;resizable=0;points=[];autosize=1;strokeColor=none;fillColor=none;" vertex="1" parent="OTX3dIeQN36Ivgr2qcu4-16">
          <mxGeometry y="40" width="380" height="140" as="geometry" />
        </mxCell>
        <mxCell id="OTX3dIeQN36Ivgr2qcu4-18" value="TQueueDataHover (HoveringTask)" style="swimlane;" vertex="1" parent="1">
          <mxGeometry x="40" y="1200" width="375" height="140" as="geometry" />
        </mxCell>
        <mxCell id="OTX3dIeQN36Ivgr2qcu4-19" value="&lt;div style=&quot;text-align: start; background-color: rgb(255, 255, 255); font-family: Menlo, Monaco, &amp;quot;Courier New&amp;quot;, monospace; line-height: 18px; white-space: pre;&quot;&gt;&lt;div style=&quot;line-height: 18px;&quot;&gt;&lt;div&gt;&lt;span style=&quot;color: rgb(0, 0, 255);&quot;&gt;typedef&lt;/span&gt; &lt;span style=&quot;color: rgb(0, 0, 255);&quot;&gt;struct&lt;/span&gt; {&lt;/div&gt;&lt;div&gt;  &lt;span style=&quot;color: rgb(38, 127, 153);&quot;&gt;uint16_t&lt;/span&gt; &lt;span style=&quot;color: rgb(0, 16, 128);&quot;&gt;channels&lt;/span&gt;[&lt;span style=&quot;color: rgb(0, 0, 255);&quot;&gt;MIN_NUMBER_OF_CHANNELS&lt;/span&gt;] = {&lt;span style=&quot;color: rgb(9, 134, 88);&quot;&gt;0&lt;/span&gt;};&lt;/div&gt;&lt;div&gt;  &lt;span style=&quot;color: rgb(0, 0, 255);&quot;&gt;bool&lt;/span&gt; &lt;span style=&quot;color: rgb(0, 16, 128);&quot;&gt;prevent_ariming&lt;/span&gt; = &lt;span style=&quot;color: rgb(0, 0, 255);&quot;&gt;false&lt;/span&gt;;&lt;/div&gt;&lt;br&gt;&lt;div&gt;} &lt;span style=&quot;color: rgb(38, 127, 153);&quot;&gt;TQueueDataHover&lt;/span&gt;;&lt;/div&gt;&lt;/div&gt;&lt;/div&gt;" style="text;html=1;align=center;verticalAlign=middle;resizable=0;points=[];autosize=1;strokeColor=none;fillColor=none;" vertex="1" parent="OTX3dIeQN36Ivgr2qcu4-18">
          <mxGeometry x="-5" y="30" width="380" height="100" as="geometry" />
        </mxCell>
        <mxCell id="OTX3dIeQN36Ivgr2qcu4-20" value="TQueueDataSteer (SteeringTask)" style="swimlane;" vertex="1" parent="1">
          <mxGeometry x="39" y="1360" width="375" height="140" as="geometry" />
        </mxCell>
        <mxCell id="OTX3dIeQN36Ivgr2qcu4-21" value="&lt;div style=&quot;text-align: start; background-color: rgb(255, 255, 255); font-family: Menlo, Monaco, &amp;quot;Courier New&amp;quot;, monospace; line-height: 18px; white-space: pre;&quot;&gt;&lt;div style=&quot;line-height: 18px;&quot;&gt;&lt;div style=&quot;line-height: 18px;&quot;&gt;&lt;div&gt;&lt;span style=&quot;color: rgb(0, 0, 255);&quot;&gt;typedef&lt;/span&gt; &lt;span style=&quot;color: rgb(0, 0, 255);&quot;&gt;struct&lt;/span&gt; {&lt;/div&gt;&lt;div&gt;  &lt;span style=&quot;color: rgb(38, 127, 153);&quot;&gt;uint16_t&lt;/span&gt; &lt;span style=&quot;color: rgb(0, 16, 128);&quot;&gt;channels&lt;/span&gt;[&lt;span style=&quot;color: rgb(0, 0, 255);&quot;&gt;MIN_NUMBER_OF_CHANNELS&lt;/span&gt;] = {&lt;span style=&quot;color: rgb(9, 134, 88);&quot;&gt;0&lt;/span&gt;};&lt;/div&gt;&lt;div&gt;  &lt;span style=&quot;color: rgb(0, 0, 255);&quot;&gt;bool&lt;/span&gt; &lt;span style=&quot;color: rgb(0, 16, 128);&quot;&gt;prevent_ariming&lt;/span&gt; = &lt;span style=&quot;color: rgb(0, 0, 255);&quot;&gt;false&lt;/span&gt;;&lt;/div&gt;&lt;br&gt;&lt;div&gt;} &lt;span style=&quot;color: rgb(38, 127, 153);&quot;&gt;TQueueDataSteer&lt;/span&gt;;&lt;/div&gt;&lt;/div&gt;&lt;/div&gt;&lt;/div&gt;" style="text;html=1;align=center;verticalAlign=middle;resizable=0;points=[];autosize=1;strokeColor=none;fillColor=none;" vertex="1" parent="OTX3dIeQN36Ivgr2qcu4-20">
          <mxGeometry x="-5" y="30" width="380" height="100" as="geometry" />
        </mxCell>
        <mxCell id="OTX3dIeQN36Ivgr2qcu4-22" value="TQueueDataMixer (MixerTask)" style="swimlane;" vertex="1" parent="1">
          <mxGeometry x="40" y="1520" width="375" height="140" as="geometry" />
        </mxCell>
        <mxCell id="OTX3dIeQN36Ivgr2qcu4-23" value="&lt;div style=&quot;text-align: start; background-color: rgb(255, 255, 255); font-family: Menlo, Monaco, &amp;quot;Courier New&amp;quot;, monospace; line-height: 18px; white-space: pre;&quot;&gt;&lt;div style=&quot;line-height: 18px;&quot;&gt;&lt;div style=&quot;line-height: 18px;&quot;&gt;&lt;div style=&quot;line-height: 18px;&quot;&gt;&lt;div&gt;&lt;span style=&quot;color: rgb(0, 0, 255);&quot;&gt;typedef&lt;/span&gt; &lt;span style=&quot;color: rgb(0, 0, 255);&quot;&gt;struct&lt;/span&gt; {&lt;/div&gt;&lt;div&gt;  &lt;span style=&quot;color: rgb(38, 127, 153);&quot;&gt;uint16_t&lt;/span&gt; &lt;span style=&quot;color: rgb(0, 16, 128);&quot;&gt;channels&lt;/span&gt;[&lt;span style=&quot;color: rgb(0, 0, 255);&quot;&gt;NUMBER_OF_CHANNELS&lt;/span&gt;] = {&lt;span style=&quot;color: rgb(9, 134, 88);&quot;&gt;0&lt;/span&gt;};&lt;/div&gt;&lt;div&gt;  &lt;span style=&quot;color: rgb(0, 0, 255);&quot;&gt;bool&lt;/span&gt; &lt;span style=&quot;color: rgb(0, 16, 128);&quot;&gt;is_armed&lt;/span&gt; = &lt;span style=&quot;color: rgb(0, 0, 255);&quot;&gt;false&lt;/span&gt;;&lt;/div&gt;&lt;br&gt;&lt;div&gt;} &lt;span style=&quot;color: rgb(38, 127, 153);&quot;&gt;TQueueDataMixer&lt;/span&gt;;&lt;/div&gt;&lt;/div&gt;&lt;/div&gt;&lt;/div&gt;&lt;/div&gt;" style="text;html=1;align=center;verticalAlign=middle;resizable=0;points=[];autosize=1;strokeColor=none;fillColor=none;" vertex="1" parent="OTX3dIeQN36Ivgr2qcu4-22">
          <mxGeometry x="5" y="30" width="360" height="100" as="geometry" />
        </mxCell>
        <mxCell id="OTX3dIeQN36Ivgr2qcu4-24" value="TQueueDataTypes" style="swimlane;" vertex="1" parent="1">
          <mxGeometry x="350" y="540" width="215" height="200" as="geometry" />
        </mxCell>
        <mxCell id="OTX3dIeQN36Ivgr2qcu4-25" value="&lt;div style=&quot;text-align: start; background-color: rgb(255, 255, 255); font-family: Menlo, Monaco, &amp;quot;Courier New&amp;quot;, monospace; line-height: 18px; white-space: pre;&quot;&gt;&lt;div style=&quot;line-height: 18px;&quot;&gt;&lt;div style=&quot;line-height: 18px;&quot;&gt;&lt;div&gt;&lt;span style=&quot;color: rgb(0, 0, 255);&quot;&gt;enum&lt;/span&gt; &lt;span style=&quot;color: rgb(38, 127, 153);&quot;&gt;QueueDataTypes&lt;/span&gt; {&lt;/div&gt;&lt;div&gt;  &lt;span style=&quot;color: rgb(0, 112, 193);&quot;&gt;QTYPE_RC&lt;/span&gt;,&lt;/div&gt;&lt;div&gt;  &lt;span style=&quot;color: rgb(0, 112, 193);&quot;&gt;QTYPE_OFLOW&lt;/span&gt;,&lt;/div&gt;&lt;div&gt;  &lt;span style=&quot;color: rgb(0, 112, 193);&quot;&gt;QTYPE_SURFACE&lt;/span&gt;,&lt;/div&gt;&lt;div&gt;  &lt;span style=&quot;color: rgb(0, 112, 193);&quot;&gt;QTYPE_STEER&lt;/span&gt;,&lt;/div&gt;&lt;div&gt;  &lt;span style=&quot;color: rgb(0, 112, 193);&quot;&gt;QTYPE_HOVER&lt;/span&gt;,&lt;/div&gt;&lt;div&gt;  &lt;span style=&quot;color: rgb(0, 112, 193);&quot;&gt;QTYPE_MIXER&lt;/span&gt;&lt;/div&gt;&lt;div&gt;};&lt;/div&gt;&lt;/div&gt;&lt;/div&gt;&lt;/div&gt;" style="text;html=1;align=center;verticalAlign=middle;resizable=0;points=[];autosize=1;strokeColor=none;fillColor=none;" vertex="1" parent="OTX3dIeQN36Ivgr2qcu4-24">
          <mxGeometry y="30" width="180" height="160" as="geometry" />
        </mxCell>
        <UserObject label="&lt;span style=&quot;font-size: 11px; white-space: nowrap; background-color: rgb(255, 255, 255);&quot;&gt;QTYPE_RC&lt;/span&gt;" placeholders="1" name="Variable" id="OTX3dIeQN36Ivgr2qcu4-36">
          <mxCell style="text;html=1;strokeColor=default;fillColor=default;align=center;verticalAlign=middle;whiteSpace=wrap;overflow=hidden;opacity=80;strokeWidth=1;" vertex="1" parent="1">
            <mxGeometry x="80" y="380" width="120" height="20" as="geometry" />
          </mxCell>
        </UserObject>
        <mxCell id="OTX3dIeQN36Ivgr2qcu4-40" value="" style="edgeStyle=orthogonalEdgeStyle;rounded=0;orthogonalLoop=1;jettySize=auto;html=1;exitX=0.5;exitY=1;exitDx=0;exitDy=0;entryX=-0.028;entryY=0.679;entryDx=0;entryDy=0;entryPerimeter=0;" edge="1" parent="1" source="OTX3dIeQN36Ivgr2qcu4-2" target="OTX3dIeQN36Ivgr2qcu4-6">
          <mxGeometry relative="1" as="geometry">
            <mxPoint x="290" y="300" as="sourcePoint" />
            <mxPoint x="289" y="463" as="targetPoint" />
          </mxGeometry>
        </mxCell>
        <mxCell id="OTX3dIeQN36Ivgr2qcu4-41" value="xQueueSend" style="edgeLabel;html=1;align=center;verticalAlign=middle;resizable=0;points=[];" vertex="1" connectable="0" parent="OTX3dIeQN36Ivgr2qcu4-40">
          <mxGeometry x="-0.6821" relative="1" as="geometry">
            <mxPoint as="offset" />
          </mxGeometry>
        </mxCell>
        <UserObject label="&lt;span style=&quot;font-size: 11px; white-space: nowrap; background-color: rgb(255, 255, 255);&quot;&gt;QTYPE_OFLOW&lt;/span&gt;" placeholders="1" name="Variable" id="OTX3dIeQN36Ivgr2qcu4-39">
          <mxCell style="text;html=1;strokeColor=default;fillColor=default;align=center;verticalAlign=middle;whiteSpace=wrap;overflow=hidden;opacity=80;strokeWidth=1;" vertex="1" parent="1">
            <mxGeometry x="230" y="380" width="120" height="20" as="geometry" />
          </mxCell>
        </UserObject>
      </root>
    </mxGraphModel>
  </diagram>
  <diagram id="pm224JAhDzK2WGW0TSKA" name="STRUCTs">
    <mxGraphModel dx="2231" dy="2489" grid="1" gridSize="10" guides="1" tooltips="1" connect="1" arrows="1" fold="1" page="1" pageScale="1" pageWidth="827" pageHeight="1169" math="0" shadow="0">
      <root>
        <mxCell id="0" />
        <mxCell id="1" parent="0" />
        <mxCell id="3cIa4cTb5rZVQR8zC01b-19" style="edgeStyle=orthogonalEdgeStyle;rounded=0;orthogonalLoop=1;jettySize=auto;html=1;entryX=0.5;entryY=1;entryDx=0;entryDy=0;" edge="1" parent="1" source="3cIa4cTb5rZVQR8zC01b-1" target="3cIa4cTb5rZVQR8zC01b-15">
          <mxGeometry relative="1" as="geometry" />
        </mxCell>
        <mxCell id="3cIa4cTb5rZVQR8zC01b-22" style="edgeStyle=orthogonalEdgeStyle;rounded=0;orthogonalLoop=1;jettySize=auto;html=1;entryX=1;entryY=0.5;entryDx=0;entryDy=0;" edge="1" parent="1" source="3cIa4cTb5rZVQR8zC01b-1" target="3cIa4cTb5rZVQR8zC01b-11">
          <mxGeometry relative="1" as="geometry" />
        </mxCell>
        <mxCell id="3cIa4cTb5rZVQR8zC01b-23" style="edgeStyle=orthogonalEdgeStyle;rounded=0;orthogonalLoop=1;jettySize=auto;html=1;entryX=0;entryY=0.5;entryDx=0;entryDy=0;" edge="1" parent="1" source="3cIa4cTb5rZVQR8zC01b-1" target="3cIa4cTb5rZVQR8zC01b-3">
          <mxGeometry relative="1" as="geometry" />
        </mxCell>
        <mxCell id="3cIa4cTb5rZVQR8zC01b-24" style="edgeStyle=orthogonalEdgeStyle;rounded=0;orthogonalLoop=1;jettySize=auto;html=1;entryX=0;entryY=0.5;entryDx=0;entryDy=0;" edge="1" parent="1" source="3cIa4cTb5rZVQR8zC01b-1" target="3cIa4cTb5rZVQR8zC01b-9">
          <mxGeometry relative="1" as="geometry" />
        </mxCell>
        <mxCell id="3cIa4cTb5rZVQR8zC01b-25" style="edgeStyle=orthogonalEdgeStyle;rounded=0;orthogonalLoop=1;jettySize=auto;html=1;entryX=0;entryY=0.5;entryDx=0;entryDy=0;" edge="1" parent="1" source="3cIa4cTb5rZVQR8zC01b-1" target="3cIa4cTb5rZVQR8zC01b-13">
          <mxGeometry relative="1" as="geometry" />
        </mxCell>
        <mxCell id="3cIa4cTb5rZVQR8zC01b-1" value="TDataAll - Struct" style="swimlane;" vertex="1" parent="1">
          <mxGeometry x="366" width="290" height="270" as="geometry" />
        </mxCell>
        <mxCell id="3cIa4cTb5rZVQR8zC01b-2" value="&lt;div style=&quot;text-align: start; background-color: rgb(255, 255, 255); font-family: Menlo, Monaco, &amp;quot;Courier New&amp;quot;, monospace; line-height: 18px; white-space: pre;&quot;&gt;&lt;div style=&quot;line-height: 18px;&quot;&gt;&lt;div&gt;&lt;span style=&quot;color: rgb(0, 0, 255);&quot;&gt;typedef&lt;/span&gt; &lt;span style=&quot;color: rgb(0, 0, 255);&quot;&gt;struct&lt;/span&gt; {&lt;/div&gt;&lt;div&gt;  &lt;span style=&quot;color: rgb(38, 127, 153);&quot;&gt;QueueDataTypes&lt;/span&gt; &lt;span style=&quot;color: rgb(0, 16, 128);&quot;&gt;type&lt;/span&gt;;&lt;/div&gt;&lt;div&gt;  &lt;span style=&quot;color: rgb(0, 0, 255);&quot;&gt;union&lt;/span&gt; {&lt;/div&gt;&lt;div&gt;    &lt;span style=&quot;color: rgb(38, 127, 153);&quot;&gt;TQueueDataRC&lt;/span&gt; &lt;span style=&quot;color: rgb(0, 16, 128);&quot;&gt;rcData&lt;/span&gt;;&lt;/div&gt;&lt;div&gt;    &lt;span style=&quot;color: rgb(38, 127, 153);&quot;&gt;TQueueDataMixer&lt;/span&gt; &lt;span style=&quot;color: rgb(0, 16, 128);&quot;&gt;mixerData&lt;/span&gt;;&lt;/div&gt;&lt;div&gt;    &lt;span style=&quot;color: rgb(38, 127, 153);&quot;&gt;TQueueDataOFLOW&lt;/span&gt; &lt;span style=&quot;color: rgb(0, 16, 128);&quot;&gt;oflowData&lt;/span&gt;;&lt;/div&gt;&lt;div&gt;    &lt;span style=&quot;color: rgb(38, 127, 153);&quot;&gt;TQueueDataSteer&lt;/span&gt; &lt;span style=&quot;color: rgb(0, 16, 128);&quot;&gt;steerData&lt;/span&gt;;&lt;/div&gt;&lt;div&gt;    &lt;span style=&quot;color: rgb(38, 127, 153);&quot;&gt;TQueueDataSurface&lt;/span&gt; &lt;span style=&quot;color: rgb(0, 16, 128);&quot;&gt;surfaceData&lt;/span&gt;;&lt;/div&gt;&lt;div&gt;    &lt;span style=&quot;color: rgb(38, 127, 153);&quot;&gt;TQueueDataHover&lt;/span&gt; &lt;span style=&quot;color: rgb(0, 16, 128);&quot;&gt;hoverData&lt;/span&gt;;&lt;/div&gt;&lt;div&gt;  } &lt;span style=&quot;color: rgb(0, 16, 128);&quot;&gt;data&lt;/span&gt;;&lt;/div&gt;&lt;br&gt;&lt;div&gt;} &lt;span style=&quot;color: rgb(38, 127, 153);&quot;&gt;TQueueDataMessage&lt;/span&gt;;&lt;/div&gt;&lt;/div&gt;&lt;/div&gt;" style="text;html=1;align=center;verticalAlign=middle;resizable=0;points=[];autosize=1;strokeColor=none;fillColor=none;" vertex="1" parent="3cIa4cTb5rZVQR8zC01b-1">
          <mxGeometry x="5" y="30" width="270" height="230" as="geometry" />
        </mxCell>
        <mxCell id="3cIa4cTb5rZVQR8zC01b-3" value="TQueueDataOFLOW (OpticalFlow-Sensor)" style="swimlane;" vertex="1" parent="1">
          <mxGeometry x="656" y="320" width="424" height="160" as="geometry" />
        </mxCell>
        <mxCell id="3cIa4cTb5rZVQR8zC01b-4" value="&lt;div style=&quot;text-align: start; background-color: rgb(255, 255, 255); font-family: Menlo, Monaco, &amp;quot;Courier New&amp;quot;, monospace; line-height: 18px; white-space: pre;&quot;&gt;&lt;div style=&quot;line-height: 18px;&quot;&gt;&lt;div&gt;&lt;span style=&quot;color: rgb(0, 0, 255);&quot;&gt;typedef&lt;/span&gt; &lt;span style=&quot;color: rgb(0, 0, 255);&quot;&gt;struct&lt;/span&gt; {&lt;/div&gt;&lt;div&gt;  &lt;span style=&quot;color: rgb(38, 127, 153);&quot;&gt;uint16_t&lt;/span&gt; &lt;span style=&quot;color: rgb(0, 16, 128);&quot;&gt;channels&lt;/span&gt;[&lt;span style=&quot;color: rgb(0, 0, 255);&quot;&gt;MIN_NUMBER_OF_CHANNELS&lt;/span&gt;] = {&lt;span style=&quot;color: rgb(9, 134, 88);&quot;&gt;0&lt;/span&gt;};&lt;/div&gt;&lt;div&gt;  &lt;span style=&quot;color: rgb(0, 0, 255);&quot;&gt;bool&lt;/span&gt; &lt;span style=&quot;color: rgb(0, 16, 128);&quot;&gt;prevent_ariming&lt;/span&gt; = &lt;span style=&quot;color: rgb(0, 0, 255);&quot;&gt;false&lt;/span&gt;;&lt;/div&gt;&lt;div&gt;  &lt;span style=&quot;color: rgb(0, 0, 255);&quot;&gt;float&lt;/span&gt; &lt;span style=&quot;color: rgb(0, 16, 128);&quot;&gt;x&lt;/span&gt;,&lt;span style=&quot;color: rgb(0, 16, 128);&quot;&gt;y&lt;/span&gt;;&lt;/div&gt;&lt;div&gt;} &lt;span style=&quot;color: rgb(38, 127, 153);&quot;&gt;TQueueDataOFLOW&lt;/span&gt;;&lt;/div&gt;&lt;/div&gt;&lt;/div&gt;" style="text;html=1;align=center;verticalAlign=middle;resizable=0;points=[];autosize=1;strokeColor=none;fillColor=none;" vertex="1" parent="3cIa4cTb5rZVQR8zC01b-3">
          <mxGeometry x="22" y="40" width="380" height="100" as="geometry" />
        </mxCell>
        <mxCell id="3cIa4cTb5rZVQR8zC01b-5" value="TQueueDataRC (Receiver)" style="swimlane;" vertex="1" parent="1">
          <mxGeometry x="-40" y="320" width="420" height="140" as="geometry" />
        </mxCell>
        <mxCell id="3cIa4cTb5rZVQR8zC01b-6" value="&lt;div style=&quot;text-align: start; background-color: rgb(255, 255, 255); font-family: Menlo, Monaco, &amp;quot;Courier New&amp;quot;, monospace; line-height: 18px; white-space: pre;&quot;&gt;&lt;div&gt;&lt;span style=&quot;color: rgb(0, 0, 255);&quot;&gt;typedef&lt;/span&gt; &lt;span style=&quot;color: rgb(0, 0, 255);&quot;&gt;struct&lt;/span&gt; {&lt;/div&gt;&lt;div&gt;  &lt;span style=&quot;color: rgb(38, 127, 153);&quot;&gt;uint16_t&lt;/span&gt; &lt;span style=&quot;color: rgb(0, 16, 128);&quot;&gt;channels&lt;/span&gt;[&lt;span style=&quot;color: rgb(0, 0, 255);&quot;&gt;NUMBER_OF_CHANNELS&lt;/span&gt;] = {&lt;span style=&quot;color: rgb(9, 134, 88);&quot;&gt;0&lt;/span&gt;};&lt;/div&gt;&lt;div&gt;  &lt;span style=&quot;color: rgb(0, 0, 255);&quot;&gt;bool&lt;/span&gt; &lt;span style=&quot;color: rgb(0, 16, 128);&quot;&gt;is_armed&lt;/span&gt; = &lt;span style=&quot;color: rgb(0, 0, 255);&quot;&gt;false&lt;/span&gt;;&lt;/div&gt;&lt;br&gt;&lt;div&gt;} &lt;span style=&quot;color: rgb(38, 127, 153);&quot;&gt;TQueueDataRC&lt;/span&gt;;&lt;/div&gt;&lt;/div&gt;" style="text;html=1;align=center;verticalAlign=middle;resizable=0;points=[];autosize=1;strokeColor=none;fillColor=none;" vertex="1" parent="3cIa4cTb5rZVQR8zC01b-5">
          <mxGeometry x="5" y="30" width="360" height="100" as="geometry" />
        </mxCell>
        <mxCell id="3cIa4cTb5rZVQR8zC01b-7" value="TQueueDataSurface (TOF &amp; Lidar Distance-Sensors)" style="swimlane;" vertex="1" parent="1">
          <mxGeometry x="-40" y="480" width="420" height="200" as="geometry" />
        </mxCell>
        <mxCell id="3cIa4cTb5rZVQR8zC01b-8" value="&lt;div style=&quot;text-align: start; background-color: rgb(255, 255, 255); font-family: Menlo, Monaco, &amp;quot;Courier New&amp;quot;, monospace; line-height: 18px; white-space: pre;&quot;&gt;&lt;div&gt;&lt;span style=&quot;color: rgb(0, 0, 255);&quot;&gt;typedef&lt;/span&gt; &lt;span style=&quot;color: rgb(0, 0, 255);&quot;&gt;struct&lt;/span&gt; {&lt;/div&gt;&lt;div&gt;  &lt;span style=&quot;color: rgb(38, 127, 153);&quot;&gt;uint16_t&lt;/span&gt; &lt;span style=&quot;color: rgb(0, 16, 128);&quot;&gt;channels&lt;/span&gt;[&lt;span style=&quot;color: rgb(0, 0, 255);&quot;&gt;MIN_NUMBER_OF_CHANNELS&lt;/span&gt;] = {&lt;span style=&quot;color: rgb(9, 134, 88);&quot;&gt;0&lt;/span&gt;};&lt;/div&gt;&lt;div&gt;  &lt;span style=&quot;color: rgb(0, 0, 255);&quot;&gt;bool&lt;/span&gt; &lt;span style=&quot;color: rgb(0, 16, 128);&quot;&gt;prevent_ariming&lt;/span&gt; = &lt;span style=&quot;color: rgb(0, 0, 255);&quot;&gt;false&lt;/span&gt;;&lt;/div&gt;&lt;div&gt;  &lt;span style=&quot;color: rgb(38, 127, 153);&quot;&gt;uint16_t&lt;/span&gt; &lt;span style=&quot;color: rgb(0, 16, 128);&quot;&gt;distance_front&lt;/span&gt;;&lt;/div&gt;&lt;div&gt;  &lt;span style=&quot;color: rgb(38, 127, 153);&quot;&gt;uint16_t&lt;/span&gt; &lt;span style=&quot;color: rgb(0, 16, 128);&quot;&gt;distance_rear&lt;/span&gt;;&lt;/div&gt;&lt;br&gt;&lt;div&gt;} &lt;span style=&quot;color: rgb(38, 127, 153);&quot;&gt;TQueueDataSurface&lt;/span&gt;;&lt;/div&gt;&lt;/div&gt;" style="text;html=1;align=center;verticalAlign=middle;resizable=0;points=[];autosize=1;strokeColor=none;fillColor=none;" vertex="1" parent="3cIa4cTb5rZVQR8zC01b-7">
          <mxGeometry y="40" width="380" height="140" as="geometry" />
        </mxCell>
        <mxCell id="3cIa4cTb5rZVQR8zC01b-9" value="TQueueDataHover (HoveringTask)" style="swimlane;" vertex="1" parent="1">
          <mxGeometry x="656" y="500" width="424" height="140" as="geometry" />
        </mxCell>
        <mxCell id="3cIa4cTb5rZVQR8zC01b-10" value="&lt;div style=&quot;text-align: start; background-color: rgb(255, 255, 255); font-family: Menlo, Monaco, &amp;quot;Courier New&amp;quot;, monospace; line-height: 18px; white-space: pre;&quot;&gt;&lt;div style=&quot;line-height: 18px;&quot;&gt;&lt;div&gt;&lt;span style=&quot;color: rgb(0, 0, 255);&quot;&gt;typedef&lt;/span&gt; &lt;span style=&quot;color: rgb(0, 0, 255);&quot;&gt;struct&lt;/span&gt; {&lt;/div&gt;&lt;div&gt;  &lt;span style=&quot;color: rgb(38, 127, 153);&quot;&gt;uint16_t&lt;/span&gt; &lt;span style=&quot;color: rgb(0, 16, 128);&quot;&gt;channels&lt;/span&gt;[&lt;span style=&quot;color: rgb(0, 0, 255);&quot;&gt;MIN_NUMBER_OF_CHANNELS&lt;/span&gt;] = {&lt;span style=&quot;color: rgb(9, 134, 88);&quot;&gt;0&lt;/span&gt;};&lt;/div&gt;&lt;div&gt;  &lt;span style=&quot;color: rgb(0, 0, 255);&quot;&gt;bool&lt;/span&gt; &lt;span style=&quot;color: rgb(0, 16, 128);&quot;&gt;prevent_ariming&lt;/span&gt; = &lt;span style=&quot;color: rgb(0, 0, 255);&quot;&gt;false&lt;/span&gt;;&lt;/div&gt;&lt;br&gt;&lt;div&gt;} &lt;span style=&quot;color: rgb(38, 127, 153);&quot;&gt;TQueueDataHover&lt;/span&gt;;&lt;/div&gt;&lt;/div&gt;&lt;/div&gt;" style="text;html=1;align=center;verticalAlign=middle;resizable=0;points=[];autosize=1;strokeColor=none;fillColor=none;" vertex="1" parent="3cIa4cTb5rZVQR8zC01b-9">
          <mxGeometry x="22" y="30" width="380" height="100" as="geometry" />
        </mxCell>
        <mxCell id="3cIa4cTb5rZVQR8zC01b-11" value="TQueueDataSteer (SteeringTask)" style="swimlane;" vertex="1" parent="1">
          <mxGeometry x="-40" y="700" width="420" height="140" as="geometry" />
        </mxCell>
        <mxCell id="3cIa4cTb5rZVQR8zC01b-12" value="&lt;div style=&quot;text-align: start; background-color: rgb(255, 255, 255); font-family: Menlo, Monaco, &amp;quot;Courier New&amp;quot;, monospace; line-height: 18px; white-space: pre;&quot;&gt;&lt;div style=&quot;line-height: 18px;&quot;&gt;&lt;div style=&quot;line-height: 18px;&quot;&gt;&lt;div&gt;&lt;span style=&quot;color: rgb(0, 0, 255);&quot;&gt;typedef&lt;/span&gt; &lt;span style=&quot;color: rgb(0, 0, 255);&quot;&gt;struct&lt;/span&gt; {&lt;/div&gt;&lt;div&gt;  &lt;span style=&quot;color: rgb(38, 127, 153);&quot;&gt;uint16_t&lt;/span&gt; &lt;span style=&quot;color: rgb(0, 16, 128);&quot;&gt;channels&lt;/span&gt;[&lt;span style=&quot;color: rgb(0, 0, 255);&quot;&gt;MIN_NUMBER_OF_CHANNELS&lt;/span&gt;] = {&lt;span style=&quot;color: rgb(9, 134, 88);&quot;&gt;0&lt;/span&gt;};&lt;/div&gt;&lt;div&gt;  &lt;span style=&quot;color: rgb(0, 0, 255);&quot;&gt;bool&lt;/span&gt; &lt;span style=&quot;color: rgb(0, 16, 128);&quot;&gt;prevent_ariming&lt;/span&gt; = &lt;span style=&quot;color: rgb(0, 0, 255);&quot;&gt;false&lt;/span&gt;;&lt;/div&gt;&lt;br&gt;&lt;div&gt;} &lt;span style=&quot;color: rgb(38, 127, 153);&quot;&gt;TQueueDataSteer&lt;/span&gt;;&lt;/div&gt;&lt;/div&gt;&lt;/div&gt;&lt;/div&gt;" style="text;html=1;align=center;verticalAlign=middle;resizable=0;points=[];autosize=1;strokeColor=none;fillColor=none;" vertex="1" parent="3cIa4cTb5rZVQR8zC01b-11">
          <mxGeometry x="-5" y="30" width="380" height="100" as="geometry" />
        </mxCell>
        <mxCell id="3cIa4cTb5rZVQR8zC01b-13" value="TQueueDataMixer (MixerTask)" style="swimlane;" vertex="1" parent="1">
          <mxGeometry x="656" y="670" width="424" height="140" as="geometry" />
        </mxCell>
        <mxCell id="3cIa4cTb5rZVQR8zC01b-14" value="&lt;div style=&quot;text-align: start; background-color: rgb(255, 255, 255); font-family: Menlo, Monaco, &amp;quot;Courier New&amp;quot;, monospace; line-height: 18px; white-space: pre;&quot;&gt;&lt;div style=&quot;line-height: 18px;&quot;&gt;&lt;div style=&quot;line-height: 18px;&quot;&gt;&lt;div style=&quot;line-height: 18px;&quot;&gt;&lt;div&gt;&lt;span style=&quot;color: rgb(0, 0, 255);&quot;&gt;typedef&lt;/span&gt; &lt;span style=&quot;color: rgb(0, 0, 255);&quot;&gt;struct&lt;/span&gt; {&lt;/div&gt;&lt;div&gt;  &lt;span style=&quot;color: rgb(38, 127, 153);&quot;&gt;uint16_t&lt;/span&gt; &lt;span style=&quot;color: rgb(0, 16, 128);&quot;&gt;channels&lt;/span&gt;[&lt;span style=&quot;color: rgb(0, 0, 255);&quot;&gt;NUMBER_OF_CHANNELS&lt;/span&gt;] = {&lt;span style=&quot;color: rgb(9, 134, 88);&quot;&gt;0&lt;/span&gt;};&lt;/div&gt;&lt;div&gt;  &lt;span style=&quot;color: rgb(0, 0, 255);&quot;&gt;bool&lt;/span&gt; &lt;span style=&quot;color: rgb(0, 16, 128);&quot;&gt;is_armed&lt;/span&gt; = &lt;span style=&quot;color: rgb(0, 0, 255);&quot;&gt;false&lt;/span&gt;;&lt;/div&gt;&lt;br&gt;&lt;div&gt;} &lt;span style=&quot;color: rgb(38, 127, 153);&quot;&gt;TQueueDataMixer&lt;/span&gt;;&lt;/div&gt;&lt;/div&gt;&lt;/div&gt;&lt;/div&gt;&lt;/div&gt;" style="text;html=1;align=center;verticalAlign=middle;resizable=0;points=[];autosize=1;strokeColor=none;fillColor=none;" vertex="1" parent="3cIa4cTb5rZVQR8zC01b-13">
          <mxGeometry x="22" y="30" width="360" height="100" as="geometry" />
        </mxCell>
        <mxCell id="3cIa4cTb5rZVQR8zC01b-15" value="enum QueueDataTypes" style="swimlane;" vertex="1" parent="1">
          <mxGeometry x="360" y="-250" width="300" height="200" as="geometry" />
        </mxCell>
        <mxCell id="3cIa4cTb5rZVQR8zC01b-16" value="&lt;div style=&quot;text-align: start; background-color: rgb(255, 255, 255); font-family: Menlo, Monaco, &amp;quot;Courier New&amp;quot;, monospace; line-height: 18px; white-space: pre;&quot;&gt;&lt;div style=&quot;line-height: 18px;&quot;&gt;&lt;div style=&quot;line-height: 18px;&quot;&gt;&lt;div&gt;&lt;span style=&quot;color: rgb(0, 0, 255);&quot;&gt;enum&lt;/span&gt; &lt;span style=&quot;color: rgb(38, 127, 153);&quot;&gt;QueueDataTypes&lt;/span&gt; {&lt;/div&gt;&lt;div&gt;  &lt;span style=&quot;color: rgb(0, 112, 193);&quot;&gt;QTYPE_RC&lt;/span&gt;,&lt;/div&gt;&lt;div&gt;  &lt;span style=&quot;color: rgb(0, 112, 193);&quot;&gt;QTYPE_OFLOW&lt;/span&gt;,&lt;/div&gt;&lt;div&gt;  &lt;span style=&quot;color: rgb(0, 112, 193);&quot;&gt;QTYPE_SURFACE&lt;/span&gt;,&lt;/div&gt;&lt;div&gt;  &lt;span style=&quot;color: rgb(0, 112, 193);&quot;&gt;QTYPE_STEER&lt;/span&gt;,&lt;/div&gt;&lt;div&gt;  &lt;span style=&quot;color: rgb(0, 112, 193);&quot;&gt;QTYPE_HOVER&lt;/span&gt;,&lt;/div&gt;&lt;div&gt;  &lt;span style=&quot;color: rgb(0, 112, 193);&quot;&gt;QTYPE_MIXER&lt;/span&gt;&lt;/div&gt;&lt;div&gt;};&lt;/div&gt;&lt;/div&gt;&lt;/div&gt;&lt;/div&gt;" style="text;html=1;align=center;verticalAlign=middle;resizable=0;points=[];autosize=1;strokeColor=none;fillColor=none;" vertex="1" parent="3cIa4cTb5rZVQR8zC01b-15">
          <mxGeometry y="30" width="180" height="160" as="geometry" />
        </mxCell>
        <mxCell id="3cIa4cTb5rZVQR8zC01b-20" style="edgeStyle=orthogonalEdgeStyle;rounded=0;orthogonalLoop=1;jettySize=auto;html=1;entryX=1;entryY=0.5;entryDx=0;entryDy=0;exitX=0.5;exitY=1;exitDx=0;exitDy=0;" edge="1" parent="1" source="3cIa4cTb5rZVQR8zC01b-1" target="3cIa4cTb5rZVQR8zC01b-5">
          <mxGeometry relative="1" as="geometry">
            <mxPoint x="550" y="340" as="sourcePoint" />
            <mxPoint x="408" y="410" as="targetPoint" />
            <Array as="points">
              <mxPoint x="510" y="290" />
              <mxPoint x="510" y="340" />
              <mxPoint x="511" y="340" />
              <mxPoint x="511" y="390" />
            </Array>
          </mxGeometry>
        </mxCell>
        <mxCell id="3cIa4cTb5rZVQR8zC01b-21" style="edgeStyle=orthogonalEdgeStyle;rounded=0;orthogonalLoop=1;jettySize=auto;html=1;entryX=1;entryY=0.5;entryDx=0;entryDy=0;exitX=0.5;exitY=1;exitDx=0;exitDy=0;" edge="1" parent="1" source="3cIa4cTb5rZVQR8zC01b-1" target="3cIa4cTb5rZVQR8zC01b-7">
          <mxGeometry relative="1" as="geometry">
            <mxPoint x="610" y="490" as="targetPoint" />
            <mxPoint x="540" y="480" as="sourcePoint" />
            <Array as="points">
              <mxPoint x="510" y="290" />
              <mxPoint x="510" y="580" />
            </Array>
          </mxGeometry>
        </mxCell>
      </root>
    </mxGraphModel>
  </diagram>
</mxfile>
